<svg version="1.1" id="Layer_1" xmlns="http://www.w3.org/2000/svg" xmlns:xlink="http://www.w3.org/1999/xlink" x="0px" y="0px" width="32px" height="32px" viewBox="0 0 32 32" enable-background="new 0 0 32 32" xml:space="preserve">
  <g id="icon">
    <path d="M29.264,13.068l-5.025,5.04c0.118,-1.14,-0.051,-2.854,-0.831,-3.799l3.547,-3.558c0.402,-0.404,0.648,-0.969,0.673,-1.55c0.026,-0.609,-0.182,-1.169,-0.588,-1.576l-2.675,-2.685c-0.386,-0.387,-0.918,-0.601,-1.498,-0.601c-0.616,0,-1.212,0.243,-1.635,0.667l-7.519,7.545c-0.404,0.406,-0.618,0.944,-0.602,1.516c0.016,0.56,0.25,1.094,0.659,1.505l2.71,2.72l-2.308,2.317l-2.71,-2.72c-1.029,-1.032,-1.602,-2.394,-1.614,-3.835c-0.012,-1.443,0.541,-2.799,1.557,-3.819l7.52,-7.545c1.029,-1.033,2.466,-1.625,3.942,-1.625c1.453,0,2.805,0.554,3.806,1.559l2.675,2.685C31.456,7.425,31.418,10.906,29.264,13.068zM2.557,26.789l2.675,2.685c1.002,1.005,2.353,1.559,3.806,1.559c1.476,0,2.913,-0.592,3.942,-1.625l7.519,-7.545c2.086,-2.094,2.061,-5.528,-0.057,-7.654l-2.71,-2.72l-2.308,2.317l2.71,2.72c0.86,0.863,0.885,2.19,0.057,3.021l-7.519,7.516c-0.422,0.424,-1.018,0.638,-1.635,0.638c0,0,0,0,0,0c-0.58,0,-1.112,-0.184,-1.498,-0.572l-2.675,-2.67c-0.405,-0.407,-0.614,-0.959,-0.588,-1.569c0.025,-0.581,0.27,-1.142,0.673,-1.546l3.547,-3.556c-0.78,-0.944,-0.948,-2.658,-0.831,-3.798L2.642,19.03c-1.027,1.031,-1.605,2.409,-1.628,3.879C0.991,24.388,1.539,25.767,2.557,26.789z" fill="#217346"/>
  </g>
</svg>