<svg version="1.1" id="Layer_1" xmlns="http://www.w3.org/2000/svg" xmlns:xlink="http://www.w3.org/1999/xlink" x="0px" y="0px" width="16px" height="16px" viewBox="0 0 16 16" enable-background="new 0 0 16 16" xml:space="preserve">
  <g id="icon">
    <path d="M15.127,6.421l-2.688,2.697c0.063,-0.61,-0.027,-1.527,-0.444,-2.033l1.898,-1.904c0.215,-0.216,0.346,-0.518,0.36,-0.829c0.014,-0.326,-0.098,-0.625,-0.314,-0.843l-1.431,-1.437c-0.206,-0.207,-0.491,-0.322,-0.801,-0.322c-0.33,0,-0.649,0.13,-0.875,0.357L6.808,6.145c-0.216,0.217,-0.331,0.505,-0.322,0.811c0.009,0.3,0.134,0.585,0.353,0.805l1.45,1.456l-1.235,1.24l-1.45,-1.456c-0.55,-0.552,-0.857,-1.281,-0.864,-2.052c-0.007,-0.772,0.289,-1.498,0.833,-2.044L9.596,0.868c0.551,-0.553,1.319,-0.87,2.109,-0.87c0.777,0,1.501,0.296,2.036,0.834l1.431,1.437C16.3,3.401,16.279,5.264,15.127,6.421zM0.839,13.762l1.431,1.437c0.536,0.538,1.259,0.834,2.036,0.834c0.79,0,1.558,-0.317,2.109,-0.87l4.023,-4.037c1.116,-1.121,1.102,-2.958,-0.031,-4.095l-1.45,-1.455L7.723,6.815l1.45,1.456c0.46,0.462,0.474,1.172,0.031,1.616l-4.023,4.021c-0.226,0.227,-0.545,0.341,-0.875,0.341c0,0,0,0,0,0c-0.31,0,-0.595,-0.099,-0.801,-0.306l-1.431,-1.429c-0.217,-0.218,-0.329,-0.513,-0.314,-0.839c0.013,-0.311,0.145,-0.611,0.36,-0.827l1.898,-1.903C3.6,8.441,3.51,7.523,3.572,6.913L0.884,9.611c-0.549,0.552,-0.859,1.289,-0.871,2.075C0.001,12.478,0.294,13.215,0.839,13.762z" fill="#217346"/>
  </g>
</svg>